<?xml version="1.0" encoding="UTF-8" standalone="no"?>
<!DOCTYPE svg PUBLIC "-//W3C//DTD SVG 1.1//EN"
 "http://www.w3.org/Graphics/SVG/1.1/DTD/svg11.dtd">
<!-- Generated by graphviz version 2.43.0 (0)
 -->
<!-- Title: fullGraph Pages: 1 -->
<svg width="1498pt" height="405pt"
 viewBox="0.00 0.00 1498.29 405.00" xmlns="http://www.w3.org/2000/svg" xmlns:xlink="http://www.w3.org/1999/xlink">
<g id="graph0" class="graph" transform="scale(1 1) rotate(0) translate(4 401)">
<title>fullGraph</title>
<polygon fill="white" stroke="transparent" points="-4,4 -4,-401 1494.29,-401 1494.29,4 -4,4"/>
<g id="clust1" class="cluster">
<title>cluster_expressionGraph</title>
<polygon fill="none" stroke="black" points="8,-222 8,-389 740,-389 740,-222 8,-222"/>
<text text-anchor="middle" x="374" y="-373.8" font-family="Times,serif" font-size="14.00">expressionGraph</text>
</g>
<!-- Node_0xc0000f70a0 -->
<g id="node1" class="node">
<title>Node_0xc0000f70a0</title>
<polygon fill="none" stroke="#ff0000" points="233,-333 233,-354 396,-354 396,-333 233,-333"/>
<text text-anchor="start" x="310" y="-339.8" font-family="monospace" font-size="14.00">2</text>
<polygon fill="none" stroke="#ff0000" points="396,-333 396,-354 724,-354 724,-333 396,-333"/>
<text text-anchor="start" x="432" y="-339.8" font-family="monospace" font-size="14.00">A × b(%0, %1) :: Vector float64</text>
<polygon fill="none" stroke="#ff0000" points="233,-312 233,-333 396,-333 396,-312 233,-312"/>
<text text-anchor="start" x="306" y="-318.8" font-family="monospace" font-size="14.00">Op</text>
<polygon fill="none" stroke="#ff0000" points="396,-312 396,-333 724,-333 724,-312 396,-312"/>
<text text-anchor="start" x="399" y="-318.8" font-family="monospace" font-size="14.00">A × b :: Matrix a → Vector a → Vector a</text>
<polygon fill="none" stroke="#ff0000" points="233,-291 233,-312 396,-312 396,-291 233,-291"/>
<text text-anchor="start" x="293.5" y="-297.8" font-family="monospace" font-size="14.00">Shape</text>
<polygon fill="none" stroke="#ff0000" points="396,-291 396,-312 724,-312 724,-291 396,-291"/>
<text text-anchor="start" x="547.5" y="-297.8" font-family="monospace" font-size="14.00">(2)</text>
<polygon fill="none" stroke="#ff0000" points="233,-270 233,-291 396,-291 396,-270 233,-270"/>
<text text-anchor="start" x="236" y="-276.8" font-family="monospace" font-size="14.00">Overwrites Input &#45;1</text>
<polygon fill="none" stroke="#ff0000" points="396,-270 396,-291 724,-291 724,-270 396,-270"/>
<text text-anchor="start" x="510" y="-276.8" font-family="monospace" font-size="14.00">Data On: CPU</text>
<polygon fill="none" stroke="#ff0000" points="233,-234 233,-270 396,-270 396,-234 233,-234"/>
<text text-anchor="start" x="293.5" y="-248.3" font-family="monospace" font-size="14.00">Value</text>
<polygon fill="none" stroke="#ff0000" points="396,-234 396,-270 724,-270 724,-234 396,-234"/>
<text text-anchor="start" x="502" y="-255.8" font-family="monospace" font-size="14.00">Vector (2) [1]</text>
<text text-anchor="start" x="518.5" y="-240.8" font-family="monospace" font-size="14.00">[9.4 &#160;3.4]</text>
</g>
<!-- Node_0xc0000f6ee0 -->
<g id="node2" class="node">
<title>Node_0xc0000f6ee0</title>
<polygon fill="lightyellow" stroke="transparent" points="108,-4 108,-118 434,-118 434,-4 108,-4"/>
<polygon fill="none" stroke="#00ff00" points="108,-97 108,-118 271,-118 271,-97 108,-97"/>
<text text-anchor="start" x="185" y="-103.8" font-family="monospace" font-size="14.00">0</text>
<polygon fill="none" stroke="#00ff00" points="271,-97 271,-118 434,-118 434,-97 271,-97"/>
<text text-anchor="start" x="274" y="-103.8" font-family="monospace" font-size="14.00">W :: Matrix float64</text>
<polygon fill="none" stroke="#00ff00" points="108,-76 108,-97 271,-97 271,-76 108,-76"/>
<text text-anchor="start" x="168.5" y="-82.8" font-family="monospace" font-size="14.00">Shape</text>
<polygon fill="none" stroke="#00ff00" points="271,-76 271,-97 434,-97 434,-76 271,-76"/>
<text text-anchor="start" x="327.5" y="-82.8" font-family="monospace" font-size="14.00">(2, 2)</text>
<polygon fill="none" stroke="#00ff00" points="108,-55 108,-76 271,-76 271,-55 108,-55"/>
<text text-anchor="start" x="111" y="-61.8" font-family="monospace" font-size="14.00">Overwrites Input &#45;1</text>
<polygon fill="none" stroke="#00ff00" points="271,-55 271,-76 434,-76 434,-55 271,-55"/>
<text text-anchor="start" x="302.5" y="-61.8" font-family="monospace" font-size="14.00">Data On: CPU</text>
<polygon fill="none" stroke="#00ff00" points="108,-4 108,-55 271,-55 271,-4 108,-4"/>
<text text-anchor="start" x="168.5" y="-25.8" font-family="monospace" font-size="14.00">Value</text>
<polygon fill="none" stroke="#00ff00" points="271,-4 271,-55 434,-55 434,-4 271,-4"/>
<text text-anchor="start" x="274" y="-40.8" font-family="monospace" font-size="14.00">Matrix (2, 2) [2 1]</text>
<text text-anchor="start" x="311" y="-25.8" font-family="monospace" font-size="14.00">⎡0.9 &#160;0.7⎤</text>
<text text-anchor="start" x="311" y="-10.8" font-family="monospace" font-size="14.00">⎣0.4 &#160;0.2⎦</text>
</g>
<!-- Node_0xc0000f70a0&#45;&gt;Node_0xc0000f6ee0 -->
<g id="edge1" class="edge">
<title>Node_0xc0000f70a0:anchor&#45;&gt;Node_0xc0000f6ee0:anchor</title>
<path fill="none" stroke="black" d="M421.44,-229.88C393.62,-198.84 360.07,-161.39 331.71,-129.75"/>
<polygon fill="black" stroke="black" points="334.28,-127.37 325,-122.26 329.07,-132.04 334.28,-127.37"/>
<text text-anchor="middle" x="411.94" y="-218.68" font-family="Times,serif" font-size="14.00"> 0 </text>
</g>
<!-- Node_0xc0000f6fc0 -->
<g id="node3" class="node">
<title>Node_0xc0000f6fc0</title>
<polygon fill="lightyellow" stroke="transparent" points="522,-11.5 522,-110.5 848,-110.5 848,-11.5 522,-11.5"/>
<polygon fill="none" stroke="#00ff00" points="522,-89 522,-110 685,-110 685,-89 522,-89"/>
<text text-anchor="start" x="599" y="-95.8" font-family="monospace" font-size="14.00">1</text>
<polygon fill="none" stroke="#00ff00" points="685,-89 685,-110 848,-110 848,-89 685,-89"/>
<text text-anchor="start" x="688" y="-95.8" font-family="monospace" font-size="14.00">x :: Vector float64</text>
<polygon fill="none" stroke="#00ff00" points="522,-68 522,-89 685,-89 685,-68 522,-68"/>
<text text-anchor="start" x="582.5" y="-74.8" font-family="monospace" font-size="14.00">Shape</text>
<polygon fill="none" stroke="#00ff00" points="685,-68 685,-89 848,-89 848,-68 685,-68"/>
<text text-anchor="start" x="754" y="-74.8" font-family="monospace" font-size="14.00">(2)</text>
<polygon fill="none" stroke="#00ff00" points="522,-47 522,-68 685,-68 685,-47 522,-47"/>
<text text-anchor="start" x="525" y="-53.8" font-family="monospace" font-size="14.00">Overwrites Input &#45;1</text>
<polygon fill="none" stroke="#00ff00" points="685,-47 685,-68 848,-68 848,-47 685,-47"/>
<text text-anchor="start" x="716.5" y="-53.8" font-family="monospace" font-size="14.00">Data On: CPU</text>
<polygon fill="none" stroke="#00ff00" points="522,-11 522,-47 685,-47 685,-11 522,-11"/>
<text text-anchor="start" x="582.5" y="-25.3" font-family="monospace" font-size="14.00">Value</text>
<polygon fill="none" stroke="#00ff00" points="685,-11 685,-47 848,-47 848,-11 685,-11"/>
<text text-anchor="start" x="708.5" y="-32.8" font-family="monospace" font-size="14.00">Vector (2) [1]</text>
<text text-anchor="start" x="725" y="-17.8" font-family="monospace" font-size="14.00">[ &#160;5 &#160;&#160;&#160;7]</text>
</g>
<!-- Node_0xc0000f70a0&#45;&gt;Node_0xc0000f6fc0 -->
<g id="edge2" class="edge">
<title>Node_0xc0000f70a0:anchor&#45;&gt;Node_0xc0000f6fc0:anchor</title>
<path fill="none" stroke="black" d="M534.56,-229.88C564.6,-196.36 601.32,-155.38 630.96,-122.3"/>
<polygon fill="black" stroke="black" points="633.88,-124.29 637.95,-114.51 628.67,-119.62 633.88,-124.29"/>
<text text-anchor="middle" x="525.06" y="-218.68" font-family="Times,serif" font-size="14.00"> 1 </text>
</g>
<!-- outsideRoot -->
<!-- insideInputs -->
<!-- outsideRoot&#45;&gt;insideInputs -->
<!-- outsideExprG -->
<!-- outsideRoot&#45;&gt;outsideExprG -->
<!-- insideExprG -->
<!-- insideInputs&#45;&gt;insideExprG -->
<!-- outsideExprG&#45;&gt;insideExprG -->
</g>
</svg>
