<?xml version="1.0" encoding="UTF-8" standalone="no"?>
<!DOCTYPE svg PUBLIC "-//W3C//DTD SVG 1.1//EN"
 "http://www.w3.org/Graphics/SVG/1.1/DTD/svg11.dtd">
<!-- Generated by graphviz version 2.43.0 (0)
 -->
<!-- Title: fullGraph Pages: 1 -->
<svg width="1756pt" height="644pt"
 viewBox="0.00 0.00 1756.29 644.00" xmlns="http://www.w3.org/2000/svg" xmlns:xlink="http://www.w3.org/1999/xlink">
<g id="graph0" class="graph" transform="scale(1 1) rotate(0) translate(4 640)">
<title>fullGraph</title>
<polygon fill="white" stroke="transparent" points="-4,4 -4,-640 1752.29,-640 1752.29,4 -4,4"/>
<g id="clust1" class="cluster">
<title>cluster_expressionGraph</title>
<polygon fill="none" stroke="black" points="244,-225 244,-628 926,-628 926,-225 244,-225"/>
<text text-anchor="middle" x="585" y="-612.8" font-family="Times,serif" font-size="14.00">expressionGraph</text>
</g>
<!-- Node_0xc0002202a0 -->
<g id="node1" class="node">
<title>Node_0xc0002202a0</title>
<polygon fill="none" stroke="black" points="340,-336 340,-357 503,-357 503,-336 340,-336"/>
<text text-anchor="start" x="417" y="-342.8" font-family="monospace" font-size="14.00">3</text>
<polygon fill="none" stroke="black" points="503,-336 503,-357 831,-357 831,-336 503,-336"/>
<text text-anchor="start" x="539" y="-342.8" font-family="monospace" font-size="14.00">A × b(%0, %1) :: Vector float64</text>
<polygon fill="none" stroke="black" points="340,-315 340,-336 503,-336 503,-315 340,-315"/>
<text text-anchor="start" x="413" y="-321.8" font-family="monospace" font-size="14.00">Op</text>
<polygon fill="none" stroke="black" points="503,-315 503,-336 831,-336 831,-315 503,-315"/>
<text text-anchor="start" x="506" y="-321.8" font-family="monospace" font-size="14.00">A × b :: Matrix a → Vector a → Vector a</text>
<polygon fill="none" stroke="black" points="340,-294 340,-315 503,-315 503,-294 340,-294"/>
<text text-anchor="start" x="400.5" y="-300.8" font-family="monospace" font-size="14.00">Shape</text>
<polygon fill="none" stroke="black" points="503,-294 503,-315 831,-315 831,-294 503,-294"/>
<text text-anchor="start" x="654.5" y="-300.8" font-family="monospace" font-size="14.00">(2)</text>
<polygon fill="none" stroke="black" points="340,-273 340,-294 503,-294 503,-273 340,-273"/>
<text text-anchor="start" x="343" y="-279.8" font-family="monospace" font-size="14.00">Overwrites Input &#45;1</text>
<polygon fill="none" stroke="black" points="503,-273 503,-294 831,-294 831,-273 503,-273"/>
<text text-anchor="start" x="617" y="-279.8" font-family="monospace" font-size="14.00">Data On: CPU</text>
<polygon fill="none" stroke="black" points="340,-237 340,-273 503,-273 503,-237 340,-237"/>
<text text-anchor="start" x="400.5" y="-251.3" font-family="monospace" font-size="14.00">Value</text>
<polygon fill="none" stroke="black" points="503,-237 503,-273 831,-273 831,-237 503,-237"/>
<text text-anchor="start" x="609" y="-258.8" font-family="monospace" font-size="14.00">Vector (2) [1]</text>
<text text-anchor="start" x="617" y="-243.8" font-family="monospace" font-size="14.00">[12.4 &#160;&#160;6.4]</text>
</g>
<!-- Node_0xc000220000 -->
<g id="node2" class="node">
<title>Node_0xc000220000</title>
<polygon fill="lightyellow" stroke="transparent" points="8,-4 8,-118 334,-118 334,-4 8,-4"/>
<polygon fill="none" stroke="#00ff00" points="8,-97 8,-118 171,-118 171,-97 8,-97"/>
<text text-anchor="start" x="85" y="-103.8" font-family="monospace" font-size="14.00">0</text>
<polygon fill="none" stroke="#00ff00" points="171,-97 171,-118 334,-118 334,-97 171,-97"/>
<text text-anchor="start" x="174" y="-103.8" font-family="monospace" font-size="14.00">W :: Matrix float64</text>
<polygon fill="none" stroke="#00ff00" points="8,-76 8,-97 171,-97 171,-76 8,-76"/>
<text text-anchor="start" x="68.5" y="-82.8" font-family="monospace" font-size="14.00">Shape</text>
<polygon fill="none" stroke="#00ff00" points="171,-76 171,-97 334,-97 334,-76 171,-76"/>
<text text-anchor="start" x="227.5" y="-82.8" font-family="monospace" font-size="14.00">(2, 2)</text>
<polygon fill="none" stroke="#00ff00" points="8,-55 8,-76 171,-76 171,-55 8,-55"/>
<text text-anchor="start" x="11" y="-61.8" font-family="monospace" font-size="14.00">Overwrites Input &#45;1</text>
<polygon fill="none" stroke="#00ff00" points="171,-55 171,-76 334,-76 334,-55 171,-55"/>
<text text-anchor="start" x="202.5" y="-61.8" font-family="monospace" font-size="14.00">Data On: CPU</text>
<polygon fill="none" stroke="#00ff00" points="8,-4 8,-55 171,-55 171,-4 8,-4"/>
<text text-anchor="start" x="68.5" y="-25.8" font-family="monospace" font-size="14.00">Value</text>
<polygon fill="none" stroke="#00ff00" points="171,-4 171,-55 334,-55 334,-4 171,-4"/>
<text text-anchor="start" x="174" y="-40.8" font-family="monospace" font-size="14.00">Matrix (2, 2) [2 1]</text>
<text text-anchor="start" x="211" y="-25.8" font-family="monospace" font-size="14.00">⎡0.9 &#160;0.7⎤</text>
<text text-anchor="start" x="211" y="-10.8" font-family="monospace" font-size="14.00">⎣0.4 &#160;0.2⎦</text>
</g>
<!-- Node_0xc0002202a0&#45;&gt;Node_0xc000220000 -->
<g id="edge1" class="edge">
<title>Node_0xc0002202a0:anchor&#45;&gt;Node_0xc000220000:anchor</title>
<path fill="none" stroke="black" d="M473.51,-232.98C415.54,-200.22 344.76,-160.21 286.25,-127.14"/>
<polygon fill="black" stroke="black" points="287.76,-123.98 277.33,-122.1 284.32,-130.07 287.76,-123.98"/>
<text text-anchor="middle" x="464.01" y="-221.78" font-family="Times,serif" font-size="14.00"> 0 </text>
</g>
<!-- Node_0xc0002200e0 -->
<g id="node3" class="node">
<title>Node_0xc0002200e0</title>
<polygon fill="lightyellow" stroke="transparent" points="422,-11.5 422,-110.5 748,-110.5 748,-11.5 422,-11.5"/>
<polygon fill="none" stroke="#00ff00" points="422,-89 422,-110 585,-110 585,-89 422,-89"/>
<text text-anchor="start" x="499" y="-95.8" font-family="monospace" font-size="14.00">1</text>
<polygon fill="none" stroke="#00ff00" points="585,-89 585,-110 748,-110 748,-89 585,-89"/>
<text text-anchor="start" x="588" y="-95.8" font-family="monospace" font-size="14.00">x :: Vector float64</text>
<polygon fill="none" stroke="#00ff00" points="422,-68 422,-89 585,-89 585,-68 422,-68"/>
<text text-anchor="start" x="482.5" y="-74.8" font-family="monospace" font-size="14.00">Shape</text>
<polygon fill="none" stroke="#00ff00" points="585,-68 585,-89 748,-89 748,-68 585,-68"/>
<text text-anchor="start" x="654" y="-74.8" font-family="monospace" font-size="14.00">(2)</text>
<polygon fill="none" stroke="#00ff00" points="422,-47 422,-68 585,-68 585,-47 422,-47"/>
<text text-anchor="start" x="425" y="-53.8" font-family="monospace" font-size="14.00">Overwrites Input &#45;1</text>
<polygon fill="none" stroke="#00ff00" points="585,-47 585,-68 748,-68 748,-47 585,-47"/>
<text text-anchor="start" x="616.5" y="-53.8" font-family="monospace" font-size="14.00">Data On: CPU</text>
<polygon fill="none" stroke="#00ff00" points="422,-11 422,-47 585,-47 585,-11 422,-11"/>
<text text-anchor="start" x="482.5" y="-25.3" font-family="monospace" font-size="14.00">Value</text>
<polygon fill="none" stroke="#00ff00" points="585,-11 585,-47 748,-47 748,-11 585,-11"/>
<text text-anchor="start" x="608.5" y="-32.8" font-family="monospace" font-size="14.00">Vector (2) [1]</text>
<text text-anchor="start" x="625" y="-17.8" font-family="monospace" font-size="14.00">[ &#160;5 &#160;&#160;&#160;7]</text>
</g>
<!-- Node_0xc0002202a0&#45;&gt;Node_0xc0002200e0 -->
<g id="edge2" class="edge">
<title>Node_0xc0002202a0:anchor&#45;&gt;Node_0xc0002200e0:anchor</title>
<path fill="none" stroke="black" d="M585,-232.98C585,-199.49 585,-158.45 585,-124.96"/>
<polygon fill="black" stroke="black" points="588.5,-124.83 585,-114.83 581.5,-124.83 588.5,-124.83"/>
<text text-anchor="middle" x="575.5" y="-221.78" font-family="Times,serif" font-size="14.00"> 1 </text>
</g>
<!-- Node_0xc000220380 -->
<g id="node4" class="node">
<title>Node_0xc000220380</title>
<polygon fill="none" stroke="#ff0000" points="468,-572 468,-593 623,-593 623,-572 468,-572"/>
<text text-anchor="start" x="541" y="-578.8" font-family="monospace" font-size="14.00">4</text>
<polygon fill="none" stroke="#ff0000" points="623,-572 623,-593 910,-593 910,-572 623,-572"/>
<text text-anchor="start" x="630" y="-578.8" font-family="monospace" font-size="14.00">+ false(%3, %2) :: Vector float64</text>
<polygon fill="none" stroke="#ff0000" points="468,-551 468,-572 623,-572 623,-551 468,-551"/>
<text text-anchor="start" x="537" y="-557.8" font-family="monospace" font-size="14.00">Op</text>
<polygon fill="none" stroke="#ff0000" points="623,-551 623,-572 910,-572 910,-551 623,-551"/>
<text text-anchor="start" x="626" y="-557.8" font-family="monospace" font-size="14.00">+ false :: Vector a → a → Vector a</text>
<polygon fill="none" stroke="#ff0000" points="468,-530 468,-551 623,-551 623,-530 468,-530"/>
<text text-anchor="start" x="524.5" y="-536.8" font-family="monospace" font-size="14.00">Shape</text>
<polygon fill="none" stroke="#ff0000" points="623,-530 623,-551 910,-551 910,-530 623,-530"/>
<text text-anchor="start" x="754" y="-536.8" font-family="monospace" font-size="14.00">(2)</text>
<polygon fill="none" stroke="#ff0000" points="468,-509 468,-530 623,-530 623,-509 468,-509"/>
<text text-anchor="start" x="471" y="-515.8" font-family="monospace" font-size="14.00">Overwrites Input 0</text>
<polygon fill="none" stroke="#ff0000" points="623,-509 623,-530 910,-530 910,-509 623,-509"/>
<text text-anchor="start" x="716.5" y="-515.8" font-family="monospace" font-size="14.00">Data On: CPU</text>
<polygon fill="none" stroke="#ff0000" points="468,-473 468,-509 623,-509 623,-473 468,-473"/>
<text text-anchor="start" x="524.5" y="-487.3" font-family="monospace" font-size="14.00">Value</text>
<polygon fill="none" stroke="#ff0000" points="623,-473 623,-509 910,-509 910,-473 623,-473"/>
<text text-anchor="start" x="708.5" y="-494.8" font-family="monospace" font-size="14.00">Vector (2) [1]</text>
<text text-anchor="start" x="716.5" y="-479.8" font-family="monospace" font-size="14.00">[12.4 &#160;&#160;6.4]</text>
</g>
<!-- Node_0xc000220380&#45;&gt;Node_0xc0002202a0 -->
<g id="edge3" class="edge">
<title>Node_0xc000220380:anchor&#45;&gt;Node_0xc0002202a0:anchor</title>
<path fill="none" stroke="black" d="M660.99,-468.98C647.47,-438.55 631.17,-401.88 617.14,-370.32"/>
<polygon fill="black" stroke="black" points="620.32,-368.84 613.06,-361.13 613.92,-371.69 620.32,-368.84"/>
<text text-anchor="middle" x="651.49" y="-457.78" font-family="Times,serif" font-size="14.00"> 0 </text>
</g>
<!-- Node_0xc0002201c0 -->
<g id="node5" class="node">
<title>Node_0xc0002201c0</title>
<polygon fill="lightyellow" stroke="transparent" points="836.5,-19 836.5,-103 1105.5,-103 1105.5,-19 836.5,-19"/>
<polygon fill="none" stroke="#00ff00" points="837,-82 837,-103 1000,-103 1000,-82 837,-82"/>
<text text-anchor="start" x="914" y="-88.8" font-family="monospace" font-size="14.00">2</text>
<polygon fill="none" stroke="#00ff00" points="1000,-82 1000,-103 1106,-103 1106,-82 1000,-82"/>
<text text-anchor="start" x="1003" y="-88.8" font-family="monospace" font-size="14.00">b :: float64</text>
<polygon fill="none" stroke="#00ff00" points="837,-61 837,-82 1000,-82 1000,-61 837,-61"/>
<text text-anchor="start" x="897.5" y="-67.8" font-family="monospace" font-size="14.00">Shape</text>
<polygon fill="none" stroke="#00ff00" points="1000,-61 1000,-82 1106,-82 1106,-61 1000,-61"/>
<text text-anchor="start" x="1044.5" y="-67.8" font-family="monospace" font-size="14.00">()</text>
<polygon fill="none" stroke="#00ff00" points="837,-40 837,-61 1000,-61 1000,-40 837,-40"/>
<text text-anchor="start" x="840" y="-46.8" font-family="monospace" font-size="14.00">Overwrites Input &#45;1</text>
<polygon fill="none" stroke="#00ff00" points="1000,-40 1000,-61 1106,-61 1106,-40 1000,-40"/>
<text text-anchor="start" x="1003" y="-46.8" font-family="monospace" font-size="14.00">Data On: CPU</text>
<polygon fill="none" stroke="#00ff00" points="837,-19 837,-40 1000,-40 1000,-19 837,-19"/>
<text text-anchor="start" x="897.5" y="-25.8" font-family="monospace" font-size="14.00">Value</text>
<polygon fill="none" stroke="#00ff00" points="1000,-19 1000,-40 1106,-40 1106,-19 1000,-19"/>
<text text-anchor="start" x="1007.5" y="-25.8" font-family="monospace" font-size="14.00">float64 &#160;&#160;3</text>
</g>
<!-- Node_0xc000220380&#45;&gt;Node_0xc0002201c0 -->
<g id="edge4" class="edge">
<title>Node_0xc000220380:anchor&#45;&gt;Node_0xc0002201c0:anchor</title>
<path fill="none" stroke="black" d="M774.64,-468.92C809.58,-439.47 847.83,-401.89 874,-361 923.18,-284.14 949.49,-180.14 961.83,-117.24"/>
<polygon fill="black" stroke="black" points="965.33,-117.6 963.77,-107.12 958.45,-116.29 965.33,-117.6"/>
<text text-anchor="middle" x="765.14" y="-457.72" font-family="Times,serif" font-size="14.00"> 1 </text>
</g>
<!-- outsideRoot -->
<!-- insideInputs -->
<!-- outsideRoot&#45;&gt;insideInputs -->
<!-- outsideExprG -->
<!-- outsideRoot&#45;&gt;outsideExprG -->
<!-- insideExprG -->
<!-- insideInputs&#45;&gt;insideExprG -->
<!-- outsideExprG&#45;&gt;insideExprG -->
</g>
</svg>
